<svg width="36" height="39" viewBox="0 0 36 39" fill="none" xmlns="http://www.w3.org/2000/svg">
<path opacity="0.5" d="M34.0671 26.8588V36.2523C34.0671 36.7904 33.8533 37.3065 33.4728 37.687C33.0923 38.0675 32.5762 38.2813 32.0381 38.2813H2.03212C1.76541 38.2817 1.50123 38.2295 1.2547 38.1277C1.00817 38.0259 0.78413 37.8765 0.595388 37.6881C0.406647 37.4996 0.256905 37.2758 0.154743 37.0295C0.0525804 36.7831 -3.17589e-07 36.519 0 36.2523V26.8588C0 26.3198 0.214099 25.803 0.595197 25.4219C0.976295 25.0408 1.49317 24.8267 2.03212 24.8267H9.66905C9.76324 24.881 9.84164 24.959 9.89654 25.0529C9.95145 25.1468 9.98096 25.2533 9.98216 25.3621V32.0283C9.98216 32.1894 10.0461 32.344 10.1601 32.4579C10.274 32.5718 10.4285 32.6358 10.5896 32.6358H22.6978C22.7792 32.6383 22.8602 32.6245 22.9361 32.5951C23.0119 32.5657 23.0812 32.5213 23.1396 32.4646C23.198 32.408 23.2444 32.3402 23.2761 32.2652C23.3078 32.1903 23.3241 32.1097 23.3241 32.0283V25.3777C23.3253 25.269 23.3548 25.1624 23.4097 25.0685C23.4646 24.9746 23.543 24.8967 23.6372 24.8423H32.0506C32.5842 24.8464 33.0947 25.0602 33.472 25.4375C33.8492 25.8147 34.063 26.3252 34.0671 26.8588Z" fill="white"/>
<path d="M34.3351 26.8588V36.2523C34.3342 36.7907 34.1198 37.3068 33.7388 37.6872C33.3578 38.0676 32.8414 38.2813 32.3029 38.2813H2.29384C1.75543 38.2813 1.23901 38.0676 0.858005 37.6872C0.476997 37.3068 0.262548 36.7907 0.261719 36.2523V26.8588C0.262547 26.3201 0.476896 25.8037 0.857814 25.4228C1.23873 25.0419 1.75514 24.8275 2.29384 24.8267H9.93075C10.0249 24.881 10.1034 24.959 10.1583 25.0529C10.2132 25.1468 10.2427 25.2533 10.2439 25.3621V32.0283C10.2439 32.1894 10.3079 32.344 10.4218 32.4579C10.5357 32.5718 10.6902 32.6358 10.8513 32.6358H22.9595C23.1207 32.6358 23.2752 32.5718 23.3891 32.4579C23.503 32.344 23.567 32.1894 23.567 32.0283V25.3777C23.5682 25.269 23.5977 25.1624 23.6526 25.0685C23.7075 24.9746 23.7859 24.8967 23.8801 24.8423H32.2936C32.8312 24.8407 33.3476 25.0518 33.7301 25.4296C34.1126 25.8074 34.3301 26.3212 34.3351 26.8588Z" fill="white"/>
<path d="M34.5973 25.0121V34.4056C34.5977 34.6726 34.5455 34.937 34.4435 35.1838C34.3415 35.4305 34.1918 35.6547 34.0031 35.8435C33.8143 36.0322 33.5901 36.1819 33.3434 36.2839C33.0966 36.3859 32.8322 36.4381 32.5652 36.4377H2.55609C2.28938 36.4377 2.02529 36.3852 1.77892 36.283C1.53255 36.1808 1.30872 36.0311 1.12027 35.8423C0.931823 35.6536 0.782423 35.4296 0.680641 35.183C0.578859 34.9365 0.52669 34.6723 0.527102 34.4056V25.0121C0.52669 24.7454 0.578859 24.4812 0.680641 24.2347C0.782423 23.9882 0.931823 23.7641 1.12027 23.5754C1.30872 23.3866 1.53255 23.2369 1.77892 23.1348C2.02529 23.0326 2.28938 22.98 2.55609 22.98H10.1961C10.2912 23.0326 10.3703 23.1098 10.4254 23.2034C10.4805 23.297 10.5094 23.4037 10.5093 23.5123V30.1504C10.5068 30.2314 10.5205 30.3122 10.5497 30.3879C10.5789 30.4636 10.623 30.5326 10.6793 30.591C10.7356 30.6493 10.8031 30.6958 10.8777 30.7277C10.9523 30.7596 11.0325 30.7762 11.1136 30.7766H23.2312C23.3923 30.7766 23.5468 30.7126 23.6607 30.5987C23.7746 30.4848 23.8386 30.3303 23.8386 30.1692V23.5123C23.8385 23.4037 23.8674 23.297 23.9225 23.2034C23.9776 23.1098 24.0567 23.0326 24.1518 22.98H32.5621C32.8293 22.9792 33.0941 23.0312 33.3412 23.133C33.5883 23.2347 33.8128 23.3843 34.0019 23.5732C34.1911 23.762 34.341 23.9863 34.4432 24.2333C34.5454 24.4802 34.5977 24.7449 34.5973 25.0121Z" stroke="#4D2C19" stroke-width="1.56558" stroke-miterlimit="10"/>
<path d="M30.2286 8.47295V20.5843C30.229 20.6637 30.2136 20.7425 30.1834 20.8161C30.1532 20.8896 30.1087 20.9563 30.0525 21.0125C29.9963 21.0687 29.9295 21.1132 29.856 21.1435C29.7825 21.1737 29.7037 21.189 29.6243 21.1886H22.9705C22.8909 21.1886 22.8121 21.2043 22.7385 21.2349C22.665 21.2655 22.5983 21.3103 22.5421 21.3667C22.4859 21.4232 22.4415 21.4902 22.4113 21.5638C22.3811 21.6375 22.3658 21.7164 22.3662 21.796V28.4467C22.3662 28.6078 22.3022 28.7622 22.1883 28.8762C22.0744 28.9901 21.9199 29.0541 21.7588 29.0541H9.64743C9.56765 29.0541 9.48866 29.0384 9.41496 29.0078C9.34126 28.9773 9.27431 28.9326 9.2179 28.8762C9.1615 28.8198 9.11673 28.7528 9.08621 28.6791C9.05568 28.6054 9.03998 28.5264 9.03998 28.4467V21.796C9.04039 21.7164 9.02506 21.6375 8.99488 21.5638C8.96469 21.4902 8.92024 21.4232 8.86408 21.3667C8.80792 21.3103 8.74118 21.2655 8.66765 21.2349C8.59413 21.2043 8.51529 21.1886 8.43567 21.1886H1.78193C1.70246 21.189 1.62368 21.1737 1.55017 21.1435C1.47667 21.1132 1.40989 21.0687 1.35369 21.0125C1.29749 20.9563 1.25298 20.8896 1.22276 20.8161C1.19254 20.7425 1.17721 20.6637 1.17762 20.5843V8.47295C1.17721 8.39333 1.19254 8.31439 1.22272 8.24071C1.25291 8.16703 1.29734 8.10005 1.3535 8.0436C1.40966 7.98715 1.47642 7.94238 1.54994 7.91181C1.62347 7.88124 1.70231 7.86548 1.78193 7.86548H8.43567C8.51529 7.86549 8.59413 7.84976 8.66765 7.8192C8.74118 7.78863 8.80792 7.74386 8.86408 7.68741C8.92024 7.63096 8.96469 7.56394 8.99488 7.49026C9.02506 7.41658 9.04039 7.33768 9.03998 7.25806V0.607466C9.03998 0.527695 9.05568 0.448697 9.08621 0.374998C9.11673 0.3013 9.1615 0.234331 9.2179 0.177924C9.27431 0.121518 9.34126 0.0767759 9.41496 0.0462489C9.48866 0.0157219 9.56765 0 9.64743 0H21.7588C21.9199 0 22.0744 0.0640062 22.1883 0.177924C22.3022 0.291843 22.3662 0.446361 22.3662 0.607466V7.25806C22.3658 7.33768 22.3811 7.41658 22.4113 7.49026C22.4415 7.56394 22.4859 7.63096 22.5421 7.68741C22.5983 7.74386 22.665 7.78863 22.7385 7.8192C22.8121 7.84976 22.8909 7.86549 22.9705 7.86548H29.6243C29.7039 7.86548 29.7827 7.88124 29.8563 7.91181C29.9298 7.94238 29.9965 7.98715 30.0527 8.0436C30.1089 8.10005 30.1533 8.16703 30.1835 8.24071C30.2137 8.31439 30.229 8.39333 30.2286 8.47295Z" fill="white"/>
<path d="M31.704 10.1886V22.2999C31.7031 22.4605 31.6388 22.6142 31.5249 22.7274C31.4111 22.8406 31.2571 22.9042 31.0965 22.9042H24.4459C24.2851 22.905 24.131 22.9693 24.0173 23.0831C23.9035 23.1968 23.8393 23.3508 23.8385 23.5117V30.1497C23.8385 30.2295 23.8227 30.3085 23.7922 30.3822C23.7617 30.4559 23.7169 30.5229 23.6605 30.5793C23.6041 30.6357 23.5372 30.6804 23.4635 30.711C23.3898 30.7415 23.3108 30.7572 23.231 30.7572H11.1134C11.0336 30.7572 10.9546 30.7415 10.8809 30.711C10.8072 30.6804 10.7403 30.6357 10.6839 30.5793C10.6275 30.5229 10.5827 30.4559 10.5522 30.3822C10.5217 30.3085 10.506 30.2295 10.506 30.1497V23.5117C10.5061 23.4031 10.4772 23.2964 10.4221 23.2028C10.367 23.1092 10.2878 23.032 10.1928 22.9794C10.1033 22.931 10.0034 22.9052 9.90164 22.9042H3.25418C3.09361 22.9042 2.93957 22.8406 2.82574 22.7274C2.71191 22.6142 2.64756 22.4605 2.64673 22.2999V10.1886C2.64673 10.1089 2.66245 10.0301 2.69302 9.9566C2.72358 9.88307 2.76838 9.81629 2.82483 9.76013C2.88127 9.70398 2.94826 9.65952 3.02194 9.62934C3.09562 9.59915 3.17455 9.58382 3.25418 9.58423H9.90477C9.98454 9.58423 10.0635 9.56855 10.1372 9.53802C10.2109 9.5075 10.2779 9.46276 10.3343 9.40635C10.3907 9.34994 10.4354 9.28297 10.466 9.20927C10.4965 9.13558 10.5122 9.05658 10.5122 8.97681V2.32308C10.513 2.16252 10.5774 2.00881 10.6912 1.89557C10.8051 1.78232 10.9591 1.71875 11.1197 1.71875H23.231C23.3916 1.71875 23.5456 1.78232 23.6594 1.89557C23.7733 2.00881 23.8376 2.16252 23.8385 2.32308V8.97681C23.8385 9.05658 23.8542 9.13558 23.8847 9.20927C23.9152 9.28297 23.96 9.34994 24.0164 9.40635C24.0728 9.46276 24.1397 9.5075 24.2134 9.53802C24.2871 9.56855 24.3661 9.58423 24.4459 9.58423H31.0965C31.1761 9.58382 31.255 9.59915 31.3287 9.62934C31.4024 9.65952 31.4694 9.70398 31.5258 9.76013C31.5823 9.81629 31.6271 9.88307 31.6577 9.9566C31.6882 10.0301 31.704 10.1089 31.704 10.1886Z" stroke="#4D2C19" stroke-width="1.56558" stroke-miterlimit="10"/>
</svg>
