<svg width="35" height="40" viewBox="0 0 35 40" fill="none" xmlns="http://www.w3.org/2000/svg">
<path d="M27.6032 10.6801C27.6005 12.9208 26.9113 15.1069 25.6284 16.944C24.3456 18.7811 22.5306 20.1811 20.428 20.9554C18.3253 21.7297 16.0359 21.8412 13.8679 21.2748C11.7 20.7085 9.75763 19.4915 8.30235 17.7877C6.83128 15.4406 6.30315 12.6236 6.82409 9.90307C7.34502 7.1825 8.87642 4.75994 11.1105 3.12231C13.3446 1.48468 16.1157 0.753345 18.8669 1.07533C21.6181 1.39731 24.1455 2.74874 25.9411 4.85797C27.0343 6.60256 27.6106 8.6213 27.6032 10.6801Z" fill="white"/>
<path d="M28.5452 11.9656C28.5448 14.539 27.6389 17.0302 25.9863 19.0027C24.3336 20.9753 22.0395 22.3035 19.506 22.7545C16.9724 23.2056 14.3609 22.7507 12.129 21.4697C9.89713 20.1887 8.18715 18.1632 7.29866 15.748C6.41018 13.3329 6.39985 10.6821 7.26948 8.26012C8.13912 5.83811 9.83325 3.79932 12.0551 2.50095C14.2769 1.20258 16.8848 0.727421 19.4218 1.15871C21.9588 1.58999 24.2632 2.90021 25.9312 4.85985C27.6188 6.84278 28.5454 9.3617 28.5452 11.9656Z" stroke="#4D2C19" stroke-width="0.936934" stroke-miterlimit="10"/>
<path opacity="0.5" d="M24.5181 12.0088C23.8267 15.8371 20.4425 18.5673 16.7191 18.4324C13.2937 18.3106 10.2955 15.794 9.53094 12.3142L24.5181 12.0088Z" fill="white"/>
<path d="M25.0338 13.0352C24.3423 16.8653 20.9581 19.5937 17.2347 19.4588C13.8093 19.337 10.8111 16.8222 10.0466 13.3425L25.0338 13.0352Z" stroke="#4D2C19" stroke-width="0.936934" stroke-miterlimit="10" stroke-linecap="round"/>
<path d="M12.9682 24.0921C14.3112 26.0909 15.6541 28.0935 16.997 30.0998L21.2882 23.916H27.4195C27.4195 23.916 32.745 25.3495 32.7975 32.9462V37.3929H0.956726L1.03543 30.647C1.03543 30.647 1.41957 24.6506 6.8313 24.0884L12.9682 24.0921Z" fill="white"/>
<path opacity="0.5" d="M25.7256 36.0963C27.4684 36.0963 28.8812 34.6835 28.8812 32.9408C28.8812 31.198 27.4684 29.7852 25.7256 29.7852C23.9828 29.7852 22.57 31.198 22.57 32.9408C22.57 34.6835 23.9828 36.0963 25.7256 36.0963Z" fill="white"/>
<path d="M7.22408 36.6431H4.90985V29.9291C4.90993 29.6065 4.99394 29.2895 5.15361 29.0093C5.31328 28.7291 5.54313 28.4952 5.82055 28.3307L9.51207 26.1476V22.7334" stroke="#4D2C19" stroke-width="0.936934" stroke-miterlimit="10" stroke-linecap="round"/>
<path d="M11.6939 36.6429H14.0082V29.8126C14.0083 29.5255 13.9335 29.2432 13.7912 28.9938C13.6489 28.7444 13.444 28.5364 13.1968 28.3904L9.40594 26.1417V22.7275" stroke="#4D2C19" stroke-width="0.936934" stroke-miterlimit="10" stroke-linecap="round"/>
<path d="M26.777 22.5498V30.0378" stroke="#4D2C19" stroke-width="0.936934" stroke-miterlimit="10"/>
<path d="M26.4679 36.6434C28.4135 36.6434 29.9908 35.0662 29.9908 33.1205C29.9908 31.1749 28.4135 29.5977 26.4679 29.5977C24.5223 29.5977 22.945 31.1749 22.945 33.1205C22.945 35.0662 24.5223 36.6434 26.4679 36.6434Z" stroke="#4D2C19" stroke-width="0.936934" stroke-miterlimit="10"/>
<path d="M33.9016 37.6325V31.2483C33.858 29.979 33.6249 28.7234 33.2101 27.523C31.8066 23.601 28.8777 22.8383 28.4317 22.7334H21.8245L18.3747 28.5555V39.2815" stroke="#4D2C19" stroke-width="0.936934" stroke-miterlimit="10" stroke-linecap="round"/>
<path d="M16.7521 28.5555L13.1637 22.7334H6.34466C5.98113 22.7709 2.81991 23.1756 1.31895 26.9908C0.870816 28.1831 0.628147 29.4427 0.601257 30.7161V37.6325" stroke="#4D2C19" stroke-width="0.936934" stroke-miterlimit="10" stroke-linecap="round"/>
</svg>
