<svg width="43" height="41" viewBox="0 0 43 41" fill="none" xmlns="http://www.w3.org/2000/svg">
<path d="M22.1284 26.7229C22.1289 28.9669 21.4409 31.1571 20.1573 32.9978C18.8736 34.8384 17.0561 36.241 14.9502 37.0161C12.8442 37.7911 10.5511 37.9014 8.38049 37.332C6.20986 36.7626 4.26619 35.5409 2.81184 33.8319C1.35656 31.4854 0.840067 28.6763 1.36553 25.9657C1.891 23.255 3.41974 20.8423 5.6464 19.2096C7.87306 17.5768 10.6337 16.8442 13.377 17.158C16.1202 17.4718 18.6441 18.8089 20.4445 20.9024C21.5449 22.6442 22.1288 24.6625 22.1284 26.7229Z" fill="white"/>
<path d="M5.76331 28.7024C6.55701 31.7465 9.36454 33.779 12.3246 33.5735C13.6311 33.4641 14.8722 32.9553 15.8796 32.1161C16.8869 31.277 17.6116 30.1481 17.9552 28.8829" stroke="#4D2C19" stroke-width="1.55628" stroke-miterlimit="10" stroke-linecap="round"/>
<path d="M41.6454 26.3522C41.6459 28.5963 40.9579 30.7865 39.6742 32.6272C38.3906 34.4678 36.5731 35.8703 34.4671 36.6454C32.3612 37.4205 30.0681 37.5307 27.8975 36.9613C25.7269 36.3919 23.7832 35.1703 22.3288 33.4613C20.8547 31.1138 20.3243 28.2951 20.8444 25.5724C21.3646 22.8496 22.8965 20.4249 25.1322 18.7861C27.3678 17.1472 30.1411 16.4159 32.8942 16.7392C35.6473 17.0625 38.1757 18.4165 39.9708 20.5286C41.0685 22.2724 41.6492 24.2917 41.6454 26.3522Z" fill="white"/>
<path d="M25.2816 28.3225C26.0721 31.3697 28.8828 33.4022 31.8397 33.1967C33.1418 33.0859 34.3787 32.5791 35.3841 31.7444C36.3896 30.9098 37.1155 29.7873 37.4641 28.5279" stroke="#4D2C19" stroke-width="1.55628" stroke-miterlimit="10" stroke-linecap="round"/>
<path d="M32.9735 12.1063C32.9732 14.3496 32.2849 16.5389 31.0014 18.3788C29.7179 20.2187 27.901 21.6206 25.7958 22.3956C23.6905 23.1705 21.3982 23.2811 19.2281 22.7124C17.0581 22.1437 15.1146 20.9231 13.66 19.2153C12.1982 16.8678 11.6773 14.0546 12.2018 11.3393C12.7263 8.624 14.2573 6.20715 16.4883 4.57291C18.7193 2.93866 21.4853 2.20771 24.2324 2.5265C26.9794 2.84529 29.5046 4.19027 31.302 6.29199C32.3969 8.0334 32.9764 10.0492 32.9735 12.1063Z" fill="white"/>
<path d="M32.2977 11.966C32.2968 14.5398 31.3904 17.0313 29.7371 19.004C28.0839 20.9766 25.7892 22.3046 23.2552 22.7554C20.7211 23.2062 18.1093 22.7509 15.8772 21.4695C13.645 20.188 11.935 18.162 11.0466 15.7463C10.1581 13.3307 10.148 10.6795 11.018 8.25715C11.8879 5.8348 13.5825 3.79581 15.8047 2.49733C18.027 1.19885 20.6353 0.7237 23.1727 1.15512C25.7102 1.58653 28.0149 2.89701 29.6831 4.85697C31.3717 6.84073 32.2985 9.36096 32.2977 11.966Z" stroke="#4D2C19" stroke-width="1.55628" stroke-miterlimit="10"/>
<path d="M15.2402 12.3396C16.0339 15.3868 18.8445 17.4193 21.8015 17.2138C23.1069 17.1006 24.3462 16.5895 25.352 15.7496C26.3578 14.9097 27.0817 13.7814 27.4259 12.517" stroke="#4D2C19" stroke-width="1.55628" stroke-miterlimit="10" stroke-linecap="round"/>
<path d="M22.8208 28.3194C22.8207 30.8933 21.9149 33.3851 20.262 35.3583C18.6092 37.3314 16.3147 38.6601 13.7806 39.1114C11.2465 39.5628 8.63445 39.108 6.40198 37.8269C4.16951 36.5457 2.45903 34.5199 1.57023 32.1042C0.681428 29.6886 0.670978 27.0373 1.54071 24.6147C2.41045 22.1921 4.1049 20.1529 6.3272 18.8542C8.54951 17.5555 11.1579 17.0801 13.6955 17.5115C16.2331 17.9428 18.5379 19.2533 20.2063 21.2134C21.8939 23.1965 22.8207 25.7154 22.8208 28.3194Z" stroke="#4D2C19" stroke-width="1.55628" stroke-miterlimit="10"/>
<path d="M42.025 27.9487C42.0241 30.5225 41.1177 33.014 39.4644 34.9866C37.8112 36.9593 35.5165 38.2873 32.9825 38.7381C30.4484 39.1888 27.8366 38.7336 25.6045 37.4521C23.3723 36.1706 21.6623 34.1446 20.7739 31.729C19.8854 29.3134 19.8753 26.6622 20.7453 24.2398C21.6152 21.8175 23.3098 19.7785 25.532 18.48C27.7543 17.1815 30.3626 16.7064 32.9 17.1378C35.4375 17.5692 37.7422 18.8797 39.4104 20.8396C41.0987 22.8235 42.0256 25.3437 42.025 27.9487Z" stroke="#4D2C19" stroke-width="1.55628" stroke-miterlimit="10"/>
</svg>
