<svg width="30" height="40" viewBox="0 0 30 40" fill="none" xmlns="http://www.w3.org/2000/svg">
<path opacity="0.5" d="M21.6569 14.7747H6.89258C6.53569 14.7747 6.24638 15.0642 6.24638 15.4213V17.0366C6.24638 17.3937 6.53569 17.6833 6.89258 17.6833H21.6569C22.0138 17.6833 22.3031 17.3937 22.3031 17.0366V15.4213C22.3031 15.0642 22.0138 14.7747 21.6569 14.7747Z" fill="white"/>
<path opacity="0.5" d="M21.1113 14.7747H7.57119C7.21431 14.7747 6.92499 15.0642 6.92499 15.4213V17.0366C6.92499 17.3937 7.21431 17.6833 7.57119 17.6833H21.1113C21.4681 17.6833 21.7575 17.3937 21.7575 17.0366V15.4213C21.7575 15.0642 21.4681 14.7747 21.1113 14.7747Z" fill="#FFE5B3"/>
<path opacity="0.5" d="M18.0821 35.648C18.0391 35.7655 17.9852 35.8787 17.9213 35.9863C17.7577 36.2609 17.5515 36.5077 17.3105 36.7175L15.7454 38.1364C15.3516 38.4939 14.8389 38.692 14.3072 38.692C13.7755 38.692 13.2627 38.4939 12.8689 38.1364C12.4818 37.7871 12.0964 37.436 11.7129 37.0832C11.3056 36.7538 10.958 36.357 10.685 35.9099C10.3448 35.2304 10.2202 34.4631 10.3278 33.7107C10.4369 32.6029 10.4587 28.6739 10.4341 22.8758C10.4341 22.3765 10.4341 21.8608 10.4341 21.3342C10.4341 20.1964 10.4341 18.9958 10.4096 17.7407H18.2566C18.2566 18.3283 18.2566 18.9031 18.2566 19.4651C18.2566 19.6861 18.2566 19.9044 18.2566 20.12C18.2321 28.0327 18.2375 33.3478 18.303 33.9863C18.3532 34.5497 18.2778 35.1173 18.0821 35.648Z" fill="#FFE5B3"/>
<path d="M19.7535 32.0081L11.9664 35.9562" stroke="#4D2C19" stroke-width="1.36426" stroke-miterlimit="10"/>
<path d="M22.7555 15.0476H9.06545C8.41192 15.0476 7.88213 15.5778 7.88213 16.2318V16.772C7.88213 17.426 8.41192 17.9562 9.06545 17.9562H22.7555C23.409 17.9562 23.9388 17.426 23.9388 16.772V16.2318C23.9388 15.5778 23.409 15.0476 22.7555 15.0476Z" stroke="#4D2C19" stroke-width="1.36426" stroke-miterlimit="10"/>
<path opacity="0.5" d="M26.1805 14.734H1.94417C0.580889 8.51843 -0.100756 4.43111 2.29589 2.41474C3.99726 0.982268 6.95558 0.851309 9.03321 1.57164C11.7216 2.50206 12.0897 4.54027 14.0883 4.52117C16.0868 4.50207 16.2695 2.54026 19.1406 1.57164C20.8365 0.998648 23.3994 0.867691 25.0381 1.99184C27.9201 3.97274 27.1866 9.32879 26.1805 14.734Z" fill="white"/>
<path d="M27.8161 15.0067H3.57977C2.21649 8.79113 1.53485 4.70381 3.93149 2.68744C5.63286 1.25497 8.59118 1.12401 10.6688 1.84434C13.3572 2.77476 13.7253 4.81298 15.7239 4.79388C17.7224 4.77478 17.9051 2.81296 20.7762 1.84434C22.4721 1.27135 25.035 1.1404 26.6737 2.26454C29.5557 4.24544 28.8222 9.6015 27.8161 15.0067Z" stroke="#4D2C19" stroke-width="1.36426" stroke-miterlimit="10"/>
<path d="M13.8263 3.99731C15.8863 5.52987 18.4251 6.27675 20.9862 6.10372" stroke="#4D2C19" stroke-width="1.36426" stroke-miterlimit="10" stroke-linecap="round"/>
<path d="M19.7193 35.9207C19.6763 36.0382 19.6224 36.1515 19.5585 36.259C19.3949 36.5336 19.1887 36.7805 18.9477 36.9903L17.0391 38.7174C16.7384 38.9897 16.3472 39.1404 15.9417 39.1404C15.5361 39.1404 15.145 38.9897 14.8442 38.7174C14.3453 38.2618 13.8436 37.8088 13.3474 37.3532C12.9401 37.0239 12.5924 36.627 12.3195 36.1799C11.9793 35.5004 11.8546 34.7331 11.9623 33.9807C12.0713 32.873 12.0931 28.9439 12.0686 23.1458C12.0686 22.6465 12.0686 22.1308 12.0686 21.6042C12.0686 20.4664 12.055 19.2659 12.0441 18.0107H19.8911C19.8911 18.5983 19.8911 19.1731 19.8911 19.7352C19.8911 19.9562 19.8911 20.1744 19.8911 20.39C19.8666 28.3027 19.872 33.6178 19.9374 34.2563C19.989 34.8204 19.9144 35.389 19.7193 35.9207Z" stroke="#4D2C19" stroke-width="1.36426" stroke-miterlimit="10"/>
<path d="M19.7535 21.0149L11.9664 24.9658" stroke="#4D2C19" stroke-width="1.36426" stroke-miterlimit="10"/>
<path d="M16.4028 17.8606L11.8461 20.3939" stroke="#4D2C19" stroke-width="1.36426" stroke-miterlimit="10"/>
<path d="M19.7535 26.8486L11.9664 30.7968" stroke="#4D2C19" stroke-width="1.36426" stroke-miterlimit="10"/>
</svg>
