<svg width="38" height="40" viewBox="0 0 38 40" fill="none" xmlns="http://www.w3.org/2000/svg">
<path d="M31.5036 16.6382C31.2769 17.4683 30.8368 19.0784 30.4001 20.6819C30.2772 21.1014 30.1211 21.5106 29.9334 21.9054C29.09 23.7489 28.9533 25.6957 28.8833 27.6659C28.7866 30.3895 28.4266 33.083 27.3598 35.6666C27.1379 36.2023 26.8561 36.7111 26.5197 37.1834C25.0563 39.247 22.186 39.3337 20.6892 37.2801C20.0912 36.3771 19.6295 35.3908 19.319 34.3532C18.8457 32.9664 18.539 31.5262 18.1223 30.1228C17.9766 29.6597 17.768 29.2189 17.5022 28.8127C16.6821 27.5425 14.9886 27.4025 14.0985 28.6293C13.5011 29.5321 13.0247 30.5094 12.6817 31.5362C12.0383 33.2297 11.505 34.9632 10.8849 36.6667C10.7193 37.0523 10.4868 37.4055 10.1982 37.7101C9.92188 38.0488 9.57544 38.3235 9.18273 38.5153C8.79003 38.7072 8.36041 38.8116 7.92346 38.8214C7.48651 38.8313 7.05262 38.7462 6.65169 38.5722C6.25077 38.3982 5.89235 38.1394 5.6011 37.8135C4.54638 36.6595 3.85125 35.2229 3.60091 33.6798C3.16283 31.4413 2.85339 29.1797 2.67414 26.9058C2.5731 25.2643 2.24668 23.6445 1.70406 22.092C1.03733 20.2585 0.370601 18.3983 0.100576 16.4982C-0.352801 13.2212 1.27735 10.6976 4.14096 8.8808C5.76111 7.8507 7.59127 7.97737 9.39477 8.45408C10.3182 8.6941 11.2349 8.9508 12.135 9.25416C14.4004 10.0388 16.8615 10.0529 19.1357 9.29416C20.2691 8.93413 21.4293 8.62745 22.5927 8.35409C23.6119 8.09462 24.679 8.08772 25.7014 8.33403C26.7238 8.58035 27.6707 9.07243 28.4599 9.76756C30.4635 11.4277 31.5136 13.4712 31.5036 16.6382Z" fill="white"/>
<path d="M14.5712 7.6377C15.2584 7.79305 15.9284 8.01639 16.5714 8.30442C17.3336 8.66626 18.0631 9.09343 18.7516 9.58119C19.595 10.0912 20.9951 10.5346 23.3887 10.0979" stroke="#4D2C19" stroke-width="1.66682" stroke-miterlimit="10" stroke-linecap="round"/>
<path d="M33.1709 15.2884C32.9443 16.1818 32.5042 17.912 32.0675 19.6221C31.9462 20.0779 31.7902 20.5237 31.6008 20.9556C30.7574 22.9558 30.6207 25.0327 30.5507 27.1562C30.454 30.0831 30.094 32.9834 29.0272 35.7437C28.8076 36.3161 28.5259 36.8628 28.1871 37.3738C26.7236 39.5973 23.8534 39.6874 22.3566 37.4805C21.7543 36.4999 21.2931 35.4393 20.9864 34.3302C20.5131 32.8367 20.2064 31.2899 19.7897 29.7764C19.6454 29.2824 19.4369 28.8094 19.1696 28.3696C18.3495 27.0028 16.656 26.8528 15.7659 28.1729C15.1655 29.1523 14.6895 30.2027 14.3491 31.2999C13.7057 33.1234 13.1723 34.9869 12.5523 36.8171C12.3896 37.2283 12.1574 37.6083 11.8656 37.9405C10.6221 39.494 8.58194 39.5473 7.26849 38.0539C6.2014 36.7862 5.50875 35.2462 5.2683 33.6068C4.82999 31.1959 4.52062 28.7633 4.34153 26.3195C4.24181 24.5581 3.91578 22.817 3.37145 21.139C2.70472 19.1654 2.03799 17.1619 1.76796 15.1184C1.31459 11.5947 2.94474 8.87781 5.80835 6.92429C7.4285 5.81752 9.25866 5.9542 11.0622 6.46425C11.9856 6.72427 12.9023 6.99766 13.8024 7.32435C16.0567 8.16994 18.5385 8.18527 20.8031 7.36765C21.9365 6.98095 23.0967 6.64759 24.2601 6.36756C26.477 5.81417 28.4238 6.36758 30.1273 7.88772C32.1308 9.68122 33.1809 11.8747 33.1709 15.2884Z" stroke="#4D2C19" stroke-width="1.36" stroke-miterlimit="10" stroke-linecap="round"/>
<path d="M36.709 8.79673V6.3765C36.709 5.00923 36.709 4.32559 36.3721 3.87957C36.0352 3.43354 35.2735 3.217 33.75 2.78393C32.7091 2.48805 31.7915 2.13158 31.0585 1.80616C30.059 1.36247 29.5592 1.14062 29.2057 1.14062C28.8523 1.14062 28.3525 1.36247 27.353 1.80616C26.6199 2.13158 25.7024 2.48804 24.6615 2.78393C23.138 3.217 22.3763 3.43354 22.0394 3.87957C21.7025 4.32559 21.7025 5.00923 21.7025 6.3765V8.79673C21.7025 13.4865 25.9233 16.3002 28.0336 17.4139C28.5397 17.681 28.7927 17.8146 29.2057 17.8146C29.6188 17.8146 29.8718 17.681 30.3779 17.4139C32.4882 16.3002 36.709 13.4865 36.709 8.79673Z" fill="white" stroke="#4D2C19" stroke-width="1.36" stroke-linecap="round"/>
<path d="M26.7047 10.3114C26.7047 10.3114 27.5384 10.3114 28.372 11.9788C28.372 11.9788 31.0203 7.81026 33.3742 6.97656" stroke="#4D2C19" stroke-width="1.36" stroke-linecap="round" stroke-linejoin="round"/>
</svg>
